<svg viewBox="0 0 512 512" xml:space="preserve" xmlns="http://www.w3.org/2000/svg" fill-rule="evenodd" clip-rule="evenodd" stroke-linejoin="round" stroke-miterlimit="2"><path d="M449.446 0C483.971 0 512 28.03 512 62.554v386.892C512 483.97 483.97 512 449.446 512H62.554C28.03 512 0 483.97 0 449.446V62.554C0 28.03 28.029 0 62.554 0h386.892ZM302.173 357.466c20.236 0 36.767 16.531 36.767 36.767 0 20.236-16.531 36.767-36.767 36.767-20.237 0-36.767-16.531-36.767-36.767v-36.767h36.767ZM173.06 302.173c0-20.237 16.531-36.767 36.767-36.767 20.237 0 36.767 16.53 36.767 36.767v92.06c0 20.236-16.53 36.767-36.767 36.767-20.236 0-36.767-16.531-36.767-36.767v-92.06Zm-18.526 0c0 20.236-16.531 36.767-36.767 36.767C97.531 338.94 81 322.409 81 302.173c0-20.237 16.531-36.767 36.767-36.767h36.767v36.767Zm239.699 36.767C414.47 338.939 431 322.408 431 302.173c0-20.237-16.531-36.767-36.767-36.767h-92.06c-20.237 0-36.767 16.53-36.767 36.767 0 20.236 16.53 36.767 36.767 36.767h92.06Zm0-92.346c20.237 0 36.767-16.531 36.767-36.767 0-20.236-16.531-36.767-36.767-36.767-20.236 0-36.767 16.531-36.767 36.767v36.767h36.767Zm-184.406 0c20.237 0 36.767-16.531 36.767-36.767 0-20.236-16.53-36.767-36.767-36.767h-92.06C97.531 173.06 81 189.591 81 209.827c0 20.237 16.531 36.767 36.767 36.767h92.06Zm129.113-36.767c0 20.237-16.531 36.767-36.767 36.767-20.237 0-36.767-16.53-36.767-36.767v-92.06c0-20.236 16.53-36.767 36.767-36.767 20.236 0 36.767 16.531 36.767 36.767v92.06Zm-92.346-55.293v-36.767c0-20.236-16.53-36.767-36.767-36.767-20.236 0-36.767 16.531-36.767 36.767 0 20.236 16.531 36.767 36.767 36.767h36.767Z" fill="#ffffff" class="fill-000000"></path></svg>